<svg xmlns="http://www.w3.org/2000/svg" xmlns:xlink="http://www.w3.org/1999/xlink" width="70" zoomAndPan="magnify" viewBox="0 0 370 370" height="70" preserveAspectRatio="xMidYMid meet" version="1.0"><defs><clipPath id="48dbf819e8"><path d="M 0.425781 0.605469 L 97.378906 0.605469 L 97.378906 91.1875 L 0.425781 91.1875 Z M 0.425781 0.605469 " clip-rule="nonzero"/></clipPath><clipPath id="1bd872c19b"><path d="M 97.1875 0.605469 L 97.1875 50.011719 L 53.953125 91.1875 L 0.425781 91.1875 L 0.425781 40.953125 L 43.042969 0.605469 Z M 97.1875 0.605469 " clip-rule="nonzero"/></clipPath><clipPath id="ba1225e3cb"><path d="M 0.425781 0.605469 L 97.378906 0.605469 L 97.378906 91.1875 L 0.425781 91.1875 Z M 0.425781 0.605469 " clip-rule="nonzero"/></clipPath><clipPath id="245cbdb15e"><path d="M 97.1875 0.605469 L 97.1875 50.011719 L 53.953125 91.1875 L 0.425781 91.1875 L 0.425781 40.953125 L 43.042969 0.605469 Z M 97.1875 0.605469 " clip-rule="nonzero"/></clipPath><clipPath id="533d0129a0"><rect x="0" width="98" y="0" height="92"/></clipPath><clipPath id="727267f360"><path d="M 95.8125 0.605469 L 192.765625 0.605469 L 192.765625 91.1875 L 95.8125 91.1875 Z M 95.8125 0.605469 " clip-rule="nonzero"/></clipPath><clipPath id="39329898d1"><path d="M 192.574219 0.605469 L 192.574219 50.011719 L 149.339844 91.1875 L 95.8125 91.1875 L 95.8125 40.953125 L 138.429688 0.605469 Z M 192.574219 0.605469 " clip-rule="nonzero"/></clipPath><clipPath id="afe3220226"><path d="M 0.8125 0.605469 L 97.679688 0.605469 L 97.679688 91.1875 L 0.8125 91.1875 Z M 0.8125 0.605469 " clip-rule="nonzero"/></clipPath><clipPath id="ff16f13d89"><path d="M 97.574219 0.605469 L 97.574219 50.011719 L 54.339844 91.1875 L 0.8125 91.1875 L 0.8125 40.953125 L 43.429688 0.605469 Z M 97.574219 0.605469 " clip-rule="nonzero"/></clipPath><clipPath id="fa28f9d5e0"><rect x="0" width="98" y="0" height="92"/></clipPath><clipPath id="edea1a3bc2"><path d="M 95.8125 89.8125 L 192.765625 89.8125 L 192.765625 180.398438 L 95.8125 180.398438 Z M 95.8125 89.8125 " clip-rule="nonzero"/></clipPath><clipPath id="9ea65e75b6"><path d="M 192.574219 89.8125 L 192.574219 139.222656 L 149.339844 180.398438 L 95.8125 180.398438 L 95.8125 130.164062 L 138.429688 89.8125 Z M 192.574219 89.8125 " clip-rule="nonzero"/></clipPath><clipPath id="464d3f1616"><path d="M 0.8125 0.8125 L 97.679688 0.8125 L 97.679688 91.398438 L 0.8125 91.398438 Z M 0.8125 0.8125 " clip-rule="nonzero"/></clipPath><clipPath id="fdb5113ded"><path d="M 97.574219 0.8125 L 97.574219 50.222656 L 54.339844 91.398438 L 0.8125 91.398438 L 0.8125 41.164062 L 43.429688 0.8125 Z M 97.574219 0.8125 " clip-rule="nonzero"/></clipPath><clipPath id="45097b304e"><rect x="0" width="98" y="0" height="92"/></clipPath><clipPath id="0788809aad"><path d="M 0.425781 89.8125 L 97.378906 89.8125 L 97.378906 180.398438 L 0.425781 180.398438 Z M 0.425781 89.8125 " clip-rule="nonzero"/></clipPath><clipPath id="2e5f5eb410"><path d="M 97.1875 89.8125 L 97.1875 139.222656 L 53.953125 180.398438 L 0.425781 180.398438 L 0.425781 130.164062 L 43.042969 89.8125 Z M 97.1875 89.8125 " clip-rule="nonzero"/></clipPath><clipPath id="b4710a6339"><path d="M 0.425781 0.8125 L 97.378906 0.8125 L 97.378906 91.398438 L 0.425781 91.398438 Z M 0.425781 0.8125 " clip-rule="nonzero"/></clipPath><clipPath id="830084ff13"><path d="M 97.1875 0.8125 L 97.1875 50.222656 L 53.953125 91.398438 L 0.425781 91.398438 L 0.425781 41.164062 L 43.042969 0.8125 Z M 97.1875 0.8125 " clip-rule="nonzero"/></clipPath><clipPath id="b6425ca069"><rect x="0" width="98" y="0" height="92"/></clipPath><clipPath id="a878b48fd5"><rect x="0" width="193" y="0" height="181"/></clipPath></defs><g transform="matrix(1, 0, 0, 1, 91, 97)"><g clip-path="url(#a878b48fd5)"><g clip-path="url(#48dbf819e8)"><g clip-path="url(#1bd872c19b)"><g transform="matrix(1, 0, 0, 1, -0.000000000000014211, 0)"><g clip-path="url(#533d0129a0)"><g clip-path="url(#ba1225e3cb)"><g clip-path="url(#245cbdb15e)"><path fill="#eeeeee" d="M 0.425781 0.605469 L 97.027344 0.605469 L 97.027344 91.1875 L 0.425781 91.1875 Z M 0.425781 0.605469 " fill-opacity="1" fill-rule="nonzero"/></g></g></g></g></g></g><g clip-path="url(#727267f360)"><g clip-path="url(#39329898d1)"><g transform="matrix(1, 0, 0, 1, 95, 0)"><g clip-path="url(#fa28f9d5e0)"><g clip-path="url(#afe3220226)"><g clip-path="url(#ff16f13d89)"><path fill="#eeeeee" d="M 0.8125 0.605469 L 97.410156 0.605469 L 97.410156 91.1875 L 0.8125 91.1875 Z M 0.8125 0.605469 " fill-opacity="1" fill-rule="nonzero"/></g></g></g></g></g></g><g clip-path="url(#edea1a3bc2)"><g clip-path="url(#9ea65e75b6)"><g transform="matrix(1, 0, 0, 1, 95, 89)"><g clip-path="url(#45097b304e)"><g clip-path="url(#464d3f1616)"><g clip-path="url(#fdb5113ded)"><path fill="#eeeeee" d="M 0.8125 0.8125 L 97.410156 0.8125 L 97.410156 91.398438 L 0.8125 91.398438 Z M 0.8125 0.8125 " fill-opacity="1" fill-rule="nonzero"/></g></g></g></g></g></g><g clip-path="url(#0788809aad)"><g clip-path="url(#2e5f5eb410)"><g transform="matrix(1, 0, 0, 1, -0.000000000000014211, 89)"><g clip-path="url(#b6425ca069)"><g clip-path="url(#b4710a6339)"><g clip-path="url(#830084ff13)"><path fill="#eeeeee" d="M 0.425781 0.8125 L 97.027344 0.8125 L 97.027344 91.398438 L 0.425781 91.398438 Z M 0.425781 0.8125 " fill-opacity="1" fill-rule="nonzero"/></g></g></g></g></g></g></g></g></svg>